<svg width="1387" height="316" viewBox="0 0 1387 316" fill="none" xmlns="http://www.w3.org/2000/svg">
    <path d="M-1.49994 269C42.5001 208 87.0001 266.5 114 293.5C141 320.5 209 325.5 248.5 269C288 212.5 317.5 185.5 410.5 166C503.5 146.5 641.5 180.5 751.5 166C861.5 151.5 1123.5 198 1236.5 166" stroke="url(#paint0_linear)" stroke-width="5"/>
    <path fill-rule="evenodd" clip-rule="evenodd" d="M1352.49 84.8885C1354.09 83.9972 1354.22 81.8118 1352.85 80.594L1304.29 37.4769C1302.91 36.259 1300.76 36.6497 1300.06 38.3472C1298.71 41.6626 1297.85 45.1263 1297.5 48.6253C1297.41 49.4934 1297.76 50.3422 1298.42 50.9215L1340.2 88.0152C1340.85 88.5946 1341.73 88.8469 1342.59 88.6562C1346.02 87.8875 1349.36 86.6294 1352.49 84.8885ZM1360.77 78.614C1359.76 79.6276 1358.14 79.6164 1357.07 78.668L1305.7 33.0555C1304.63 32.1071 1304.43 30.5035 1305.31 29.3839C1305.75 28.8366 1306.2 28.2983 1306.67 27.7696C1320.28 12.4329 1343.76 11.038 1359.09 24.6541C1374.43 38.2701 1375.82 61.741 1362.21 77.0777C1361.74 77.6064 1361.26 78.1185 1360.77 78.614ZM1297.76 59.1127C1299.06 57.6521 1301.29 57.5193 1302.75 58.816L1332.37 85.1137C1333.83 86.4104 1333.97 88.6458 1332.67 90.1064L1331.26 91.6932C1329.96 93.1539 1327.73 93.2867 1326.27 91.9899L1296.65 65.6923C1295.19 64.3955 1295.05 62.1602 1296.35 60.6996L1297.76 59.1127ZM1308.42 79.9267L1294.51 67.5809C1293.24 66.4535 1291.27 66.6908 1290.31 68.0875L1240.11 140.682C1239.3 141.859 1239.49 143.457 1240.56 144.407L1246.49 149.676L1248.82 151.736L1254.75 157.005C1255.82 157.955 1257.43 157.957 1258.5 157.01L1324.64 98.5689C1325.91 97.4445 1325.92 95.4604 1324.65 94.333L1310.74 81.9872L1308.42 79.9267ZM1238.84 146.788C1237.67 145.751 1235.88 145.857 1234.84 147.026L1232.03 150.199C1227.62 155.166 1228.07 162.766 1233.03 167.175C1238 171.584 1245.6 171.132 1250.01 166.166L1252.83 162.992C1253.86 161.824 1253.76 160.035 1252.59 158.998L1238.84 146.788Z" fill="url(#paint1_linear)"/>
    <defs>
        <linearGradient id="paint0_linear" x1="736.5" y1="160" x2="410.5" y2="236" gradientUnits="userSpaceOnUse">
            <stop stop-color="#5ADBFF"/>
            <stop offset="1" stop-color="#007BD2"/>
        </linearGradient>
        <linearGradient id="paint1_linear" x1="1359.09" y1="24.6541" x2="1319.31" y2="69.4684" gradientUnits="userSpaceOnUse">
            <stop stop-color="#007BD2"/>
            <stop offset="1" stop-color="#A91562"/>
        </linearGradient>
    </defs>
</svg>
